<?xml version="1.0" standalone="no"?>
<!DOCTYPE svg PUBLIC "-//W3C//DTD SVG 20010904//EN"
 "http://www.w3.org/TR/2001/REC-SVG-20010904/DTD/svg10.dtd">
<svg version="1.0" xmlns="http://www.w3.org/2000/svg"
 width="900.000000pt" height="900.000000pt" viewBox="0 0 900.000000 900.000000"
 preserveAspectRatio="xMidYMid meet">
<metadata>
Created by potrace 1.10, written by Peter Selinger 2001-2011
</metadata>
<g transform="translate(0.000000,900.000000) scale(0.100000,-0.100000)"
fill="#7952b3" stroke="none">
<path d="M4323 8988 c1 -7 -17 -16 -43 -20 -244 -47 -498 -202 -662 -405 -58
-72 -148 -215 -148 -236 0 -7 -6 -21 -13 -32 -33 -51 -73 -208 -87 -340 -8
-78 -7 -127 5 -220 22 -183 48 -274 120 -420 91 -183 230 -333 405 -437 241
-143 533 -197 800 -149 153 27 195 41 330 105 245 116 458 355 546 612 41 120
74 307 74 420 0 61 -25 231 -41 282 -28 91 -44 132 -76 197 -43 88 -46 94
-115 185 -70 92 -106 131 -183 196 -140 117 -349 217 -497 238 -32 5 -48 12
-48 22 0 12 -31 14 -185 14 -138 0 -184 -3 -182 -12z m352 -735 c174 -80 264
-217 265 -404 0 -140 -40 -232 -145 -327 -138 -126 -337 -148 -506 -55 -54 29
-139 115 -165 166 -72 138 -71 293 2 437 41 82 174 179 274 201 61 14 230 2
275 -18z"/>
<path d="M1165 7949 c-105 -43 -189 -129 -217 -223 -7 -23 -12 -70 -12 -106 0
-80 15 -133 54 -191 35 -52 2 -17 900 -944 343 -354 436 -436 635 -556 310
-189 624 -286 995 -309 218 -13 1734 -13 1953 0 168 11 271 25 392 57 91 23
246 72 285 90 19 9 49 21 65 28 86 36 224 110 315 170 174 114 294 229 905
861 149 153 335 346 416 429 182 188 209 235 209 362 0 74 -4 92 -31 146 -65
132 -181 207 -319 207 -58 0 -82 -6 -137 -32 -80 -38 -40 1 -818 -802 -472
-488 -489 -504 -620 -588 -70 -45 -254 -138 -274 -138 -6 0 -25 -6 -43 -14
-43 -18 -132 -41 -236 -61 -71 -13 -222 -15 -1080 -15 -944 0 -1003 1 -1107
20 -60 10 -126 25 -145 31 -19 6 -55 18 -80 27 -139 46 -288 127 -414 227 -83
65 -102 84 -606 605 -162 167 -383 393 -490 501 -176 177 -201 198 -253 217
-76 28 -173 29 -242 1z"/>
<path d="M555 6302 c-103 -35 -167 -88 -213 -175 -25 -48 -27 -61 -26 -162 0
-128 15 -167 94 -246 59 -59 117 -86 213 -99 106 -14 669 -13 760 1 161 25
264 119 302 275 16 66 16 75 0 140 -31 126 -119 224 -239 266 -45 16 -92 18
-446 17 -345 0 -401 -2 -445 -17z"/>
<path d="M7521 6299 c-105 -39 -172 -104 -210 -205 -31 -80 -34 -126 -16 -198
41 -163 139 -252 302 -276 93 -13 658 -13 760 0 126 17 211 73 270 178 37 66
38 69 37 172 0 119 -12 151 -86 235 -43 49 -74 69 -153 97 -44 16 -88 18 -450
17 -372 -1 -404 -2 -454 -20z"/>
<path d="M3581 5100 c-75 -27 -153 -87 -182 -140 -44 -80 -43 -70 -49 -670 -6
-578 -9 -615 -47 -765 -45 -178 -122 -346 -225 -490 -16 -22 -68 -95 -116
-161 -48 -67 -134 -188 -192 -268 -58 -81 -139 -193 -180 -250 -41 -57 -115
-160 -165 -229 -49 -70 -130 -182 -180 -251 -49 -69 -119 -165 -155 -215 -36
-50 -81 -113 -100 -139 -137 -191 -184 -255 -247 -342 -131 -179 -153 -227
-153 -330 0 -104 37 -187 114 -258 137 -125 335 -124 472 1 30 27 59 59 66 73
7 13 57 83 110 156 53 73 132 182 175 242 43 59 113 156 155 215 42 58 90 124
106 146 15 22 61 85 100 140 40 55 113 156 162 225 49 69 120 167 157 219 79
109 114 158 201 279 34 48 102 141 150 207 167 230 250 369 323 537 40 96 92
254 112 348 55 253 52 201 52 860 l0 615 -26 55 c-80 172 -266 252 -438 190z"/>
<path d="M5220 5101 c-73 -27 -104 -47 -143 -90 -94 -104 -96 -117 -96 -726
-1 -595 8 -729 66 -950 47 -177 131 -385 213 -520 16 -27 33 -57 37 -65 11
-23 60 -95 138 -202 62 -85 115 -159 245 -340 19 -26 63 -87 98 -136 152 -210
273 -379 347 -482 44 -62 115 -160 157 -219 42 -58 90 -124 106 -146 108 -151
182 -253 245 -340 40 -55 90 -126 112 -158 102 -155 194 -218 328 -225 150 -8
258 58 342 208 16 29 19 54 19 140 0 128 -3 135 -183 382 -50 68 -119 162
-153 211 -35 48 -77 106 -94 130 -41 56 -147 203 -264 367 -52 73 -130 181
-172 239 -42 58 -86 120 -98 136 -12 17 -56 78 -98 136 -42 59 -117 163 -167
233 -49 69 -117 163 -151 208 -60 83 -140 198 -159 230 -11 19 -63 114 -75
137 -22 43 -69 173 -83 226 -8 33 -21 80 -28 105 -9 33 -14 210 -18 645 -6
588 -7 601 -28 654 -31 75 -68 126 -122 164 -90 64 -225 85 -321 48z"/>
<path d="M3685 1677 c-102 -29 -187 -106 -224 -203 -21 -55 -21 -68 -21 -634
0 -572 0 -579 22 -636 13 -35 40 -76 68 -105 75 -78 129 -99 255 -99 162 0
256 58 323 198 l27 57 0 585 0 585 -27 56 c-34 72 -71 115 -133 154 -83 53
-195 69 -290 42z"/>
<path d="M5145 1676 c-65 -18 -120 -53 -160 -98 -93 -108 -94 -120 -94 -738 0
-626 2 -644 106 -748 68 -67 134 -92 246 -92 51 0 108 6 127 13 101 36 177
118 210 228 19 63 20 94 20 601 0 505 -1 539 -20 597 -40 127 -124 209 -245
241 -51 13 -139 11 -190 -4z"/>
</g>
</svg>
